<?xml version="1.0" standalone="no"?>
<!DOCTYPE svg PUBLIC "-//W3C//DTD SVG 20010904//EN"
 "http://www.w3.org/TR/2001/REC-SVG-20010904/DTD/svg10.dtd">
<svg version="1.0" xmlns="http://www.w3.org/2000/svg"
 width="512.000000pt" height="512.000000pt" viewBox="0 0 512.000000 512.000000"
 preserveAspectRatio="xMidYMid meet">
<metadata>
Created by potrace 1.11, written by Peter Selinger 2001-2013
</metadata>
<g transform="translate(0.000000,512.000000) scale(0.100000,-0.100000)"
fill="#000000" stroke="none">
<path d="M2030 4679 c-207 -23 -445 -91 -606 -172 -296 -150 -470 -365 -529
-655 -11 -55 -30 -105 -55 -150 -52 -91 -104 -245 -97 -289 13 -81 96 -135
175 -114 23 7 44 16 47 21 3 5 19 19 35 30 l30 21 0 -400 0 -400 -52 -15
c-179 -52 -308 -226 -309 -416 -1 -128 36 -225 124 -317 54 -57 158 -116 224
-128 l38 -6 28 -111 c46 -186 131 -365 257 -540 63 -89 241 -263 336 -330 390
-277 879 -358 1333 -222 510 154 907 568 1040 1085 l29 113 63 20 c87 28 146
65 201 124 81 86 119 182 119 302 1 197 -127 373 -308 426 l-53 15 0 698 c0
663 -1 702 -20 775 -50 196 -200 340 -395 381 -89 19 -130 19 -213 0 l-67 -15
-300 101 c-165 55 -345 111 -400 124 -203 49 -474 67 -675 44z m505 -174 c140
-24 289 -67 550 -157 l240 -83 3 -212 2 -211 -48 -59 c-351 -420 -915 -603
-1447 -468 -122 31 -248 84 -380 160 -60 35 -134 70 -164 79 -103 30 -246 15
-328 -36 -42 -25 -42 -14 2 77 79 165 266 270 445 252 33 -4 101 -23 151 -42
261 -101 504 -55 689 130 52 51 60 64 60 97 0 46 -30 78 -75 78 -26 0 -45 -12
-94 -59 -104 -101 -236 -150 -368 -137 -34 4 -102 22 -150 40 -48 19 -116 40
-151 47 -87 16 -213 6 -303 -25 -40 -14 -74 -24 -76 -22 -8 8 62 128 107 183
168 207 468 336 900 387 70 8 347 -4 435 -19z m1165 -250 c92 -30 190 -129
222 -223 9 -27 13 -187 16 -601 l3 -564 -43 7 c-115 19 -275 139 -336 254 -61
114 -63 131 -69 659 l-6 482 34 4 c49 7 127 -1 179 -18z m-340 -1052 c54 -198
199 -366 386 -449 48 -21 79 -30 167 -49 l27 -5 0 -388 c0 -214 -5 -438 -11
-498 -60 -595 -497 -1079 -1089 -1205 -138 -29 -390 -32 -523 -6 -284 57 -541
198 -739 406 -184 193 -302 419 -361 691 -19 91 -20 132 -24 904 l-4 808 38
-7 c21 -4 92 -38 158 -76 201 -115 399 -182 620 -210 132 -16 371 -6 495 21
288 62 553 196 750 378 l75 69 7 -153 c5 -108 13 -177 28 -231z m-2330 -1073
c0 -148 -2 -270 -5 -270 -17 0 -86 43 -114 72 -98 98 -109 263 -24 375 29 37
106 93 130 93 10 0 13 -55 13 -270z m3141 242 c150 -96 175 -307 51 -435 -31
-33 -98 -77 -117 -77 -3 0 -5 122 -5 270 0 215 3 270 13 270 7 0 33 -13 58
-28z"/>
<path d="M1646 2524 c-57 -18 -131 -66 -146 -94 -17 -32 -11 -70 15 -95 30
-31 73 -32 108 -5 72 57 132 60 204 9 51 -35 86 -37 118 -4 101 100 -128 244
-299 189z"/>
<path d="M3320 2526 c-131 -35 -198 -129 -135 -191 32 -33 67 -31 118 4 72 51
132 48 204 -9 70 -55 165 22 123 100 -26 48 -161 111 -234 109 -17 0 -51 -6
-76 -13z"/>
<path d="M1649 2177 c-91 -60 -89 -181 4 -251 37 -27 117 -27 155 0 91 68 96
176 12 248 -42 35 -121 37 -171 3z"/>
<path d="M3310 2174 c-84 -72 -79 -180 12 -248 38 -27 118 -27 155 0 93 70 95
191 4 251 -50 34 -129 32 -171 -3z"/>
<path d="M2299 1411 c-26 -27 -30 -37 -25 -64 7 -39 59 -87 135 -124 50 -24
68 -28 156 -28 88 0 106 4 156 28 76 37 128 85 135 124 5 27 1 37 -25 64 -39
39 -69 36 -135 -15 -80 -60 -183 -60 -262 0 -66 51 -96 54 -135 15z"/>
</g>
</svg>
