<?xml version="1.0" standalone="no"?>
<!DOCTYPE svg PUBLIC "-//W3C//DTD SVG 20010904//EN"
 "http://www.w3.org/TR/2001/REC-SVG-20010904/DTD/svg10.dtd">
<svg version="1.0" xmlns="http://www.w3.org/2000/svg"
 width="512.000000pt" height="512.000000pt" viewBox="0 0 512.000000 512.000000"
 preserveAspectRatio="xMidYMid meet">
<metadata>
Created by potrace 1.11, written by Peter Selinger 2001-2013
</metadata>
<g transform="translate(0.000000,512.000000) scale(0.100000,-0.100000)"
fill="#000000" stroke="none">
<path d="M3020 5103 c-47 -16 -102 -53 -133 -88 -17 -19 -99 -183 -385 -765
-71 -146 -198 -404 -282 -575 -84 -170 -199 -404 -255 -520 -284 -582 -365
-745 -370 -745 -3 0 -20 7 -36 16 -41 21 -64 26 -126 26 -150 -1 -274 -141
-261 -296 6 -72 30 -116 104 -190 l65 -64 -61 -47 c-47 -36 -64 -44 -74 -36
-21 18 -56 22 -80 9 -18 -9 -99 -69 -156 -115 -20 -16 -405 -308 -508 -386
-46 -34 -88 -67 -95 -72 -7 -6 -41 -33 -77 -60 -141 -106 -233 -234 -266 -370
-2 -5 -6 -21 -9 -35 -14 -50 -13 -216 1 -280 38 -179 178 -357 344 -437 105
-51 148 -62 253 -69 185 -12 363 55 495 185 26 27 104 122 172 212 68 90 126
166 129 169 4 3 55 70 115 150 60 80 152 200 203 267 115 151 120 161 100 202
-15 29 -14 31 29 90 l45 59 62 -60 c34 -33 79 -69 100 -80 57 -29 132 -34 201
-14 103 30 187 140 189 246 0 50 -20 137 -34 146 -5 3 -9 9 -9 15 0 8 300 159
740 371 91 43 172 83 180 89 8 5 24 13 35 18 19 8 211 102 810 396 149 73 394
193 546 268 295 144 327 166 371 257 32 67 32 187 -1 255 -34 70 -1773 1810
-1842 1843 -61 30 -169 37 -229 15z m-2232 -4266 c23 -15 48 -44 61 -69 61
-128 -24 -268 -164 -268 -171 0 -249 205 -122 322 46 42 61 47 134 44 36 -2
64 -10 91 -29z"/>
</g>
</svg>
